<svg class="rich-terminal" viewBox="0 0 1751 806.4" xmlns="http://www.w3.org/2000/svg">
    <!-- Generated with Rich https://www.textualize.io -->
    <style>

    @font-face {
        font-family: "Fira Code";
        src: local("FiraCode-Regular"),
                url("https://cdnjs.cloudflare.com/ajax/libs/firacode/6.2.0/woff2/FiraCode-Regular.woff2") format("woff2"),
                url("https://cdnjs.cloudflare.com/ajax/libs/firacode/6.2.0/woff/FiraCode-Regular.woff") format("woff");
        font-style: normal;
        font-weight: 400;
    }
    @font-face {
        font-family: "Fira Code";
        src: local("FiraCode-Bold"),
                url("https://cdnjs.cloudflare.com/ajax/libs/firacode/6.2.0/woff2/FiraCode-Bold.woff2") format("woff2"),
                url("https://cdnjs.cloudflare.com/ajax/libs/firacode/6.2.0/woff/FiraCode-Bold.woff") format("woff");
        font-style: bold;
        font-weight: 700;
    }

    .terminal-2120932006-matrix {
        font-family: Fira Code, monospace;
        font-size: 20px;
        line-height: 24.4px;
        font-variant-east-asian: full-width;
    }

    .terminal-2120932006-title {
        font-size: 18px;
        font-weight: bold;
        font-family: arial;
    }

    .terminal-2120932006-r1 { fill: #c5c8c6 }
.terminal-2120932006-r2 { fill: #e0e0e0 }
.terminal-2120932006-r3 { fill: #dde6ed }
.terminal-2120932006-r4 { fill: #ddedf9 }
.terminal-2120932006-r5 { fill: #e1e1e1 }
.terminal-2120932006-r6 { fill: #121212 }
.terminal-2120932006-r7 { fill: #0178d4 }
.terminal-2120932006-r8 { fill: #ffa62b;font-weight: bold }
.terminal-2120932006-r9 { fill: #495259 }
    </style>

    <defs>
    <clipPath id="terminal-2120932006-clip-terminal">
      <rect x="0" y="0" width="1731.3999999999999" height="755.4" />
    </clipPath>
    <clipPath id="terminal-2120932006-line-0">
    <rect x="0" y="1.5" width="1732.4" height="24.65"/>
            </clipPath>
<clipPath id="terminal-2120932006-line-1">
    <rect x="0" y="25.9" width="1732.4" height="24.65"/>
            </clipPath>
<clipPath id="terminal-2120932006-line-2">
    <rect x="0" y="50.3" width="1732.4" height="24.65"/>
            </clipPath>
<clipPath id="terminal-2120932006-line-3">
    <rect x="0" y="74.7" width="1732.4" height="24.65"/>
            </clipPath>
<clipPath id="terminal-2120932006-line-4">
    <rect x="0" y="99.1" width="1732.4" height="24.65"/>
            </clipPath>
<clipPath id="terminal-2120932006-line-5">
    <rect x="0" y="123.5" width="1732.4" height="24.65"/>
            </clipPath>
<clipPath id="terminal-2120932006-line-6">
    <rect x="0" y="147.9" width="1732.4" height="24.65"/>
            </clipPath>
<clipPath id="terminal-2120932006-line-7">
    <rect x="0" y="172.3" width="1732.4" height="24.65"/>
            </clipPath>
<clipPath id="terminal-2120932006-line-8">
    <rect x="0" y="196.7" width="1732.4" height="24.65"/>
            </clipPath>
<clipPath id="terminal-2120932006-line-9">
    <rect x="0" y="221.1" width="1732.4" height="24.65"/>
            </clipPath>
<clipPath id="terminal-2120932006-line-10">
    <rect x="0" y="245.5" width="1732.4" height="24.65"/>
            </clipPath>
<clipPath id="terminal-2120932006-line-11">
    <rect x="0" y="269.9" width="1732.4" height="24.65"/>
            </clipPath>
<clipPath id="terminal-2120932006-line-12">
    <rect x="0" y="294.3" width="1732.4" height="24.65"/>
            </clipPath>
<clipPath id="terminal-2120932006-line-13">
    <rect x="0" y="318.7" width="1732.4" height="24.65"/>
            </clipPath>
<clipPath id="terminal-2120932006-line-14">
    <rect x="0" y="343.1" width="1732.4" height="24.65"/>
            </clipPath>
<clipPath id="terminal-2120932006-line-15">
    <rect x="0" y="367.5" width="1732.4" height="24.65"/>
            </clipPath>
<clipPath id="terminal-2120932006-line-16">
    <rect x="0" y="391.9" width="1732.4" height="24.65"/>
            </clipPath>
<clipPath id="terminal-2120932006-line-17">
    <rect x="0" y="416.3" width="1732.4" height="24.65"/>
            </clipPath>
<clipPath id="terminal-2120932006-line-18">
    <rect x="0" y="440.7" width="1732.4" height="24.65"/>
            </clipPath>
<clipPath id="terminal-2120932006-line-19">
    <rect x="0" y="465.1" width="1732.4" height="24.65"/>
            </clipPath>
<clipPath id="terminal-2120932006-line-20">
    <rect x="0" y="489.5" width="1732.4" height="24.65"/>
            </clipPath>
<clipPath id="terminal-2120932006-line-21">
    <rect x="0" y="513.9" width="1732.4" height="24.65"/>
            </clipPath>
<clipPath id="terminal-2120932006-line-22">
    <rect x="0" y="538.3" width="1732.4" height="24.65"/>
            </clipPath>
<clipPath id="terminal-2120932006-line-23">
    <rect x="0" y="562.7" width="1732.4" height="24.65"/>
            </clipPath>
<clipPath id="terminal-2120932006-line-24">
    <rect x="0" y="587.1" width="1732.4" height="24.65"/>
            </clipPath>
<clipPath id="terminal-2120932006-line-25">
    <rect x="0" y="611.5" width="1732.4" height="24.65"/>
            </clipPath>
<clipPath id="terminal-2120932006-line-26">
    <rect x="0" y="635.9" width="1732.4" height="24.65"/>
            </clipPath>
<clipPath id="terminal-2120932006-line-27">
    <rect x="0" y="660.3" width="1732.4" height="24.65"/>
            </clipPath>
<clipPath id="terminal-2120932006-line-28">
    <rect x="0" y="684.7" width="1732.4" height="24.65"/>
            </clipPath>
<clipPath id="terminal-2120932006-line-29">
    <rect x="0" y="709.1" width="1732.4" height="24.65"/>
            </clipPath>
    </defs>

    <rect fill="#292929" stroke="rgba(255,255,255,0.35)" stroke-width="1" x="1" y="1" width="1749" height="804.4" rx="8"/><text class="terminal-2120932006-title" fill="#c5c8c6" text-anchor="middle" x="874" y="27">ChitChat</text>
            <g transform="translate(26,22)">
            <circle cx="0" cy="0" r="7" fill="#ff5f57"/>
            <circle cx="22" cy="0" r="7" fill="#febc2e"/>
            <circle cx="44" cy="0" r="7" fill="#28c840"/>
            </g>
        
    <g transform="translate(9, 41)" clip-path="url(#terminal-2120932006-clip-terminal)">
    <rect fill="#242f38" x="0" y="1.5" width="12.2" height="24.65" shape-rendering="crispEdges"/><rect fill="#242f38" x="12.2" y="1.5" width="12.2" height="24.65" shape-rendering="crispEdges"/><rect fill="#242f38" x="24.4" y="1.5" width="61" height="24.65" shape-rendering="crispEdges"/><rect fill="#242f38" x="85.4" y="1.5" width="12.2" height="24.65" shape-rendering="crispEdges"/><rect fill="#242f38" x="97.6" y="1.5" width="707.6" height="24.65" shape-rendering="crispEdges"/><rect fill="#242f38" x="805.2" y="1.5" width="97.6" height="24.65" shape-rendering="crispEdges"/><rect fill="#242f38" x="902.8" y="1.5" width="707.6" height="24.65" shape-rendering="crispEdges"/><rect fill="#242f38" x="1610.4" y="1.5" width="12.2" height="24.65" shape-rendering="crispEdges"/><rect fill="#242f38" x="1622.6" y="1.5" width="0" height="24.65" shape-rendering="crispEdges"/><rect fill="#242f38" x="1622.6" y="1.5" width="97.6" height="24.65" shape-rendering="crispEdges"/><rect fill="#242f38" x="1720.2" y="1.5" width="12.2" height="24.65" shape-rendering="crispEdges"/><rect fill="#004578" x="0" y="25.9" width="12.2" height="24.65" shape-rendering="crispEdges"/><rect fill="#004578" x="12.2" y="25.9" width="427" height="24.65" shape-rendering="crispEdges"/><rect fill="#004578" x="439.2" y="25.9" width="841.8" height="24.65" shape-rendering="crispEdges"/><rect fill="#004578" x="1281" y="25.9" width="439.2" height="24.65" shape-rendering="crispEdges"/><rect fill="#004578" x="1720.2" y="25.9" width="12.2" height="24.65" shape-rendering="crispEdges"/><rect fill="#004578" x="0" y="50.3" width="12.2" height="24.65" shape-rendering="crispEdges"/><rect fill="#004578" x="12.2" y="50.3" width="732" height="24.65" shape-rendering="crispEdges"/><rect fill="#004578" x="744.2" y="50.3" width="231.8" height="24.65" shape-rendering="crispEdges"/><rect fill="#004578" x="976" y="50.3" width="744.2" height="24.65" shape-rendering="crispEdges"/><rect fill="#004578" x="1720.2" y="50.3" width="12.2" height="24.65" shape-rendering="crispEdges"/><rect fill="#004578" x="0" y="74.7" width="12.2" height="24.65" shape-rendering="crispEdges"/><rect fill="#004578" x="12.2" y="74.7" width="585.6" height="24.65" shape-rendering="crispEdges"/><rect fill="#004578" x="597.8" y="74.7" width="536.8" height="24.65" shape-rendering="crispEdges"/><rect fill="#004578" x="1134.6" y="74.7" width="585.6" height="24.65" shape-rendering="crispEdges"/><rect fill="#004578" x="1720.2" y="74.7" width="12.2" height="24.65" shape-rendering="crispEdges"/><rect fill="#004578" x="0" y="99.1" width="12.2" height="24.65" shape-rendering="crispEdges"/><rect fill="#004578" x="12.2" y="99.1" width="622.2" height="24.65" shape-rendering="crispEdges"/><rect fill="#004578" x="634.4" y="99.1" width="463.6" height="24.65" shape-rendering="crispEdges"/><rect fill="#004578" x="1098" y="99.1" width="622.2" height="24.65" shape-rendering="crispEdges"/><rect fill="#004578" x="1720.2" y="99.1" width="12.2" height="24.65" shape-rendering="crispEdges"/><rect fill="#004578" x="0" y="123.5" width="12.2" height="24.65" shape-rendering="crispEdges"/><rect fill="#004578" x="12.2" y="123.5" width="573.4" height="24.65" shape-rendering="crispEdges"/><rect fill="#004578" x="585.6" y="123.5" width="549" height="24.65" shape-rendering="crispEdges"/><rect fill="#004578" x="1134.6" y="123.5" width="585.6" height="24.65" shape-rendering="crispEdges"/><rect fill="#004578" x="1720.2" y="123.5" width="12.2" height="24.65" shape-rendering="crispEdges"/><rect fill="#121212" x="0" y="147.9" width="1732.4" height="24.65" shape-rendering="crispEdges"/><rect fill="#0178d4" x="0" y="172.3" width="12.2" height="24.65" shape-rendering="crispEdges"/><rect fill="#0178d4" x="12.2" y="172.3" width="317.2" height="24.65" shape-rendering="crispEdges"/><rect fill="#0178d4" x="329.4" y="172.3" width="1390.8" height="24.65" shape-rendering="crispEdges"/><rect fill="#0178d4" x="1720.2" y="172.3" width="12.2" height="24.65" shape-rendering="crispEdges"/><rect fill="#121212" x="0" y="196.7" width="1732.4" height="24.65" shape-rendering="crispEdges"/><rect fill="#1e1e1e" x="0" y="221.1" width="12.2" height="24.65" shape-rendering="crispEdges"/><rect fill="#1e1e1e" x="12.2" y="221.1" width="1329.8" height="24.65" shape-rendering="crispEdges"/><rect fill="#1e1e1e" x="1342" y="221.1" width="378.2" height="24.65" shape-rendering="crispEdges"/><rect fill="#1e1e1e" x="1720.2" y="221.1" width="12.2" height="24.65" shape-rendering="crispEdges"/><rect fill="#1e1e1e" x="0" y="245.5" width="12.2" height="24.65" shape-rendering="crispEdges"/><rect fill="#1e1e1e" x="12.2" y="245.5" width="0" height="24.65" shape-rendering="crispEdges"/><rect fill="#1e1e1e" x="12.2" y="245.5" width="1708" height="24.65" shape-rendering="crispEdges"/><rect fill="#1e1e1e" x="1720.2" y="245.5" width="12.2" height="24.65" shape-rendering="crispEdges"/><rect fill="#1e1e1e" x="0" y="269.9" width="12.2" height="24.65" shape-rendering="crispEdges"/><rect fill="#1e1e1e" x="12.2" y="269.9" width="1281" height="24.65" shape-rendering="crispEdges"/><rect fill="#1e1e1e" x="1293.2" y="269.9" width="427" height="24.65" shape-rendering="crispEdges"/><rect fill="#1e1e1e" x="1720.2" y="269.9" width="12.2" height="24.65" shape-rendering="crispEdges"/><rect fill="#1e1e1e" x="0" y="294.3" width="12.2" height="24.65" shape-rendering="crispEdges"/><rect fill="#1e1e1e" x="12.2" y="294.3" width="829.6" height="24.65" shape-rendering="crispEdges"/><rect fill="#1e1e1e" x="841.8" y="294.3" width="878.4" height="24.65" shape-rendering="crispEdges"/><rect fill="#1e1e1e" x="1720.2" y="294.3" width="12.2" height="24.65" shape-rendering="crispEdges"/><rect fill="#121212" x="0" y="318.7" width="1732.4" height="24.65" shape-rendering="crispEdges"/><rect fill="#0178d4" x="0" y="343.1" width="12.2" height="24.65" shape-rendering="crispEdges"/><rect fill="#0178d4" x="12.2" y="343.1" width="573.4" height="24.65" shape-rendering="crispEdges"/><rect fill="#0178d4" x="585.6" y="343.1" width="1134.6" height="24.65" shape-rendering="crispEdges"/><rect fill="#0178d4" x="1720.2" y="343.1" width="12.2" height="24.65" shape-rendering="crispEdges"/><rect fill="#121212" x="0" y="367.5" width="1732.4" height="24.65" shape-rendering="crispEdges"/><rect fill="#1e1e1e" x="0" y="391.9" width="12.2" height="24.65" shape-rendering="crispEdges"/><rect fill="#1e1e1e" x="12.2" y="391.9" width="854" height="24.65" shape-rendering="crispEdges"/><rect fill="#1e1e1e" x="866.2" y="391.9" width="854" height="24.65" shape-rendering="crispEdges"/><rect fill="#1e1e1e" x="1720.2" y="391.9" width="12.2" height="24.65" shape-rendering="crispEdges"/><rect fill="#1e1e1e" x="0" y="416.3" width="12.2" height="24.65" shape-rendering="crispEdges"/><rect fill="#1e1e1e" x="12.2" y="416.3" width="0" height="24.65" shape-rendering="crispEdges"/><rect fill="#1e1e1e" x="12.2" y="416.3" width="1708" height="24.65" shape-rendering="crispEdges"/><rect fill="#1e1e1e" x="1720.2" y="416.3" width="12.2" height="24.65" shape-rendering="crispEdges"/><rect fill="#1e1e1e" x="0" y="440.7" width="12.2" height="24.65" shape-rendering="crispEdges"/><rect fill="#1e1e1e" x="12.2" y="440.7" width="1659.2" height="24.65" shape-rendering="crispEdges"/><rect fill="#1e1e1e" x="1671.4" y="440.7" width="48.8" height="24.65" shape-rendering="crispEdges"/><rect fill="#1e1e1e" x="1720.2" y="440.7" width="12.2" height="24.65" shape-rendering="crispEdges"/><rect fill="#1e1e1e" x="0" y="465.1" width="12.2" height="24.65" shape-rendering="crispEdges"/><rect fill="#1e1e1e" x="12.2" y="465.1" width="1207.8" height="24.65" shape-rendering="crispEdges"/><rect fill="#1e1e1e" x="1220" y="465.1" width="500.2" height="24.65" shape-rendering="crispEdges"/><rect fill="#1e1e1e" x="1720.2" y="465.1" width="12.2" height="24.65" shape-rendering="crispEdges"/><rect fill="#121212" x="0" y="489.5" width="1732.4" height="24.65" shape-rendering="crispEdges"/><rect fill="#121212" x="0" y="513.9" width="1732.4" height="24.65" shape-rendering="crispEdges"/><rect fill="#121212" x="0" y="538.3" width="1732.4" height="24.65" shape-rendering="crispEdges"/><rect fill="#121212" x="0" y="562.7" width="1732.4" height="24.65" shape-rendering="crispEdges"/><rect fill="#121212" x="0" y="587.1" width="1732.4" height="24.65" shape-rendering="crispEdges"/><rect fill="#121212" x="0" y="611.5" width="1732.4" height="24.65" shape-rendering="crispEdges"/><rect fill="#121212" x="0" y="635.9" width="1732.4" height="24.65" shape-rendering="crispEdges"/><rect fill="#0178d4" x="0" y="660.3" width="12.2" height="24.65" shape-rendering="crispEdges"/><rect fill="#1e1e1e" x="12.2" y="660.3" width="1708" height="24.65" shape-rendering="crispEdges"/><rect fill="#121212" x="1720.2" y="660.3" width="12.2" height="24.65" shape-rendering="crispEdges"/><rect fill="#0178d4" x="0" y="684.7" width="12.2" height="24.65" shape-rendering="crispEdges"/><rect fill="#1e1e1e" x="12.2" y="684.7" width="12.2" height="24.65" shape-rendering="crispEdges"/><rect fill="#e0e0e0" x="24.4" y="684.7" width="12.2" height="24.65" shape-rendering="crispEdges"/><rect fill="#262626" x="36.6" y="684.7" width="1671.4" height="24.65" shape-rendering="crispEdges"/><rect fill="#1e1e1e" x="1708" y="684.7" width="12.2" height="24.65" shape-rendering="crispEdges"/><rect fill="#121212" x="1720.2" y="684.7" width="12.2" height="24.65" shape-rendering="crispEdges"/><rect fill="#0178d4" x="0" y="709.1" width="12.2" height="24.65" shape-rendering="crispEdges"/><rect fill="#1e1e1e" x="12.2" y="709.1" width="1708" height="24.65" shape-rendering="crispEdges"/><rect fill="#121212" x="1720.2" y="709.1" width="12.2" height="24.65" shape-rendering="crispEdges"/><rect fill="#242f38" x="0" y="733.5" width="109.8" height="24.65" shape-rendering="crispEdges"/><rect fill="#242f38" x="109.8" y="733.5" width="158.6" height="24.65" shape-rendering="crispEdges"/><rect fill="#242f38" x="268.4" y="733.5" width="1317.6" height="24.65" shape-rendering="crispEdges"/><rect fill="#242f38" x="1586" y="733.5" width="12.2" height="24.65" shape-rendering="crispEdges"/><rect fill="#242f38" x="1598.2" y="733.5" width="24.4" height="24.65" shape-rendering="crispEdges"/><rect fill="#242f38" x="1622.6" y="733.5" width="97.6" height="24.65" shape-rendering="crispEdges"/><rect fill="#242f38" x="1720.2" y="733.5" width="12.2" height="24.65" shape-rendering="crispEdges"/>
    <g class="terminal-2120932006-matrix">
    <text class="terminal-2120932006-r2" x="12.2" y="20" textLength="12.2" clip-path="url(#terminal-2120932006-line-0)">⭘</text><text class="terminal-2120932006-r2" x="805.2" y="20" textLength="97.6" clip-path="url(#terminal-2120932006-line-0)">ChitChat</text><text class="terminal-2120932006-r1" x="1732.4" y="20" textLength="12.2" clip-path="url(#terminal-2120932006-line-0)">
</text><text class="terminal-2120932006-r3" x="439.2" y="44.4" textLength="841.8" clip-path="url(#terminal-2120932006-line-1)">Welcome&#160;to&#160;ChitChat!&#160;Type&#160;your&#160;message&#160;and&#160;press&#160;Shift+Enter&#160;to&#160;chat.</text><text class="terminal-2120932006-r1" x="1732.4" y="44.4" textLength="12.2" clip-path="url(#terminal-2120932006-line-1)">
</text><text class="terminal-2120932006-r3" x="744.2" y="68.8" textLength="231.8" clip-path="url(#terminal-2120932006-line-2)">Using&#160;model:&#160;gemma3</text><text class="terminal-2120932006-r1" x="1732.4" y="68.8" textLength="12.2" clip-path="url(#terminal-2120932006-line-2)">
</text><text class="terminal-2120932006-r3" x="597.8" y="93.2" textLength="536.8" clip-path="url(#terminal-2120932006-line-3)">Available&#160;models:&#160;gemma3,&#160;mistral,&#160;tinyllama</text><text class="terminal-2120932006-r1" x="1732.4" y="93.2" textLength="12.2" clip-path="url(#terminal-2120932006-line-3)">
</text><text class="terminal-2120932006-r3" x="634.4" y="117.6" textLength="463.6" clip-path="url(#terminal-2120932006-line-4)">To&#160;change&#160;model&#160;type&#160;/model&#160;MODEL_NAME</text><text class="terminal-2120932006-r1" x="1732.4" y="117.6" textLength="12.2" clip-path="url(#terminal-2120932006-line-4)">
</text><text class="terminal-2120932006-r3" x="585.6" y="142" textLength="549" clip-path="url(#terminal-2120932006-line-5)">---&#160;Type&#160;/exit&#160;or&#160;/quit&#160;to&#160;leave&#160;the&#160;chat&#160;---</text><text class="terminal-2120932006-r1" x="1732.4" y="142" textLength="12.2" clip-path="url(#terminal-2120932006-line-5)">
</text><text class="terminal-2120932006-r1" x="1732.4" y="166.4" textLength="12.2" clip-path="url(#terminal-2120932006-line-6)">
</text><text class="terminal-2120932006-r4" x="12.2" y="190.8" textLength="317.2" clip-path="url(#terminal-2120932006-line-7)">You:&#160;when&#160;were&#160;you&#160;trained</text><text class="terminal-2120932006-r1" x="1732.4" y="190.8" textLength="12.2" clip-path="url(#terminal-2120932006-line-7)">
</text><text class="terminal-2120932006-r1" x="1732.4" y="215.2" textLength="12.2" clip-path="url(#terminal-2120932006-line-8)">
</text><text class="terminal-2120932006-r5" x="12.2" y="239.6" textLength="1329.8" clip-path="url(#terminal-2120932006-line-9)">Assistant:&#160;I&#160;was&#160;trained&#160;by&#160;Google&#160;DeepMind.&#160;I&#160;am&#160;a&#160;Gemma&#160;model&#160;and&#160;my&#160;training&#160;was&#160;completed&#160;in&#160;early&#160;2024.&#160;</text><text class="terminal-2120932006-r1" x="1732.4" y="239.6" textLength="12.2" clip-path="url(#terminal-2120932006-line-9)">
</text><text class="terminal-2120932006-r1" x="1732.4" y="264" textLength="12.2" clip-path="url(#terminal-2120932006-line-10)">
</text><text class="terminal-2120932006-r5" x="12.2" y="288.4" textLength="1281" clip-path="url(#terminal-2120932006-line-11)">You&#160;can&#160;find&#160;more&#160;specific&#160;details&#160;about&#160;my&#160;architecture&#160;and&#160;training&#160;in&#160;the&#160;Gemma&#160;team’s&#160;research&#160;paper:</text><text class="terminal-2120932006-r1" x="1732.4" y="288.4" textLength="12.2" clip-path="url(#terminal-2120932006-line-11)">
</text><text class="terminal-2120932006-r5" x="12.2" y="312.8" textLength="829.6" clip-path="url(#terminal-2120932006-line-12)">[https://arxiv.org/abs/2309.07825](https://arxiv.org/abs/2309.07825)</text><text class="terminal-2120932006-r1" x="1732.4" y="312.8" textLength="12.2" clip-path="url(#terminal-2120932006-line-12)">
</text><text class="terminal-2120932006-r1" x="1732.4" y="337.2" textLength="12.2" clip-path="url(#terminal-2120932006-line-13)">
</text><text class="terminal-2120932006-r4" x="12.2" y="361.6" textLength="573.4" clip-path="url(#terminal-2120932006-line-14)">You:&#160;can&#160;you&#160;summarise&#160;for&#160;me?&#160;please&#160;be&#160;brief?</text><text class="terminal-2120932006-r1" x="1732.4" y="361.6" textLength="12.2" clip-path="url(#terminal-2120932006-line-14)">
</text><text class="terminal-2120932006-r1" x="1732.4" y="386" textLength="12.2" clip-path="url(#terminal-2120932006-line-15)">
</text><text class="terminal-2120932006-r5" x="12.2" y="410.4" textLength="854" clip-path="url(#terminal-2120932006-line-16)">Assistant:&#160;Okay,&#160;here’s&#160;a&#160;brief&#160;summary&#160;of&#160;the&#160;Gemma&#160;model’s&#160;training:</text><text class="terminal-2120932006-r1" x="1732.4" y="410.4" textLength="12.2" clip-path="url(#terminal-2120932006-line-16)">
</text><text class="terminal-2120932006-r1" x="1732.4" y="434.8" textLength="12.2" clip-path="url(#terminal-2120932006-line-17)">
</text><text class="terminal-2120932006-r5" x="12.2" y="459.2" textLength="1659.2" clip-path="url(#terminal-2120932006-line-18)">Gemma&#160;is&#160;a&#160;family&#160;of&#160;open-source&#160;language&#160;models&#160;developed&#160;by&#160;Google&#160;DeepMind.&#160;It&#160;was&#160;trained&#160;on&#160;a&#160;massive&#160;dataset&#160;of&#160;text&#160;and&#160;code,&#160;and</text><text class="terminal-2120932006-r1" x="1732.4" y="459.2" textLength="12.2" clip-path="url(#terminal-2120932006-line-18)">
</text><text class="terminal-2120932006-r5" x="12.2" y="483.6" textLength="1207.8" clip-path="url(#terminal-2120932006-line-19)">released&#160;in&#160;early&#160;2024.&#160;Key&#160;features&#160;include&#160;various&#160;sizes&#160;and&#160;focus&#160;on&#160;responsible&#160;AI&#160;development.</text><text class="terminal-2120932006-r1" x="1732.4" y="483.6" textLength="12.2" clip-path="url(#terminal-2120932006-line-19)">
</text><text class="terminal-2120932006-r1" x="1732.4" y="508" textLength="12.2" clip-path="url(#terminal-2120932006-line-20)">
</text><text class="terminal-2120932006-r1" x="1732.4" y="532.4" textLength="12.2" clip-path="url(#terminal-2120932006-line-21)">
</text><text class="terminal-2120932006-r1" x="1732.4" y="556.8" textLength="12.2" clip-path="url(#terminal-2120932006-line-22)">
</text><text class="terminal-2120932006-r1" x="1732.4" y="581.2" textLength="12.2" clip-path="url(#terminal-2120932006-line-23)">
</text><text class="terminal-2120932006-r1" x="1732.4" y="605.6" textLength="12.2" clip-path="url(#terminal-2120932006-line-24)">
</text><text class="terminal-2120932006-r1" x="1732.4" y="630" textLength="12.2" clip-path="url(#terminal-2120932006-line-25)">
</text><text class="terminal-2120932006-r1" x="1732.4" y="654.4" textLength="12.2" clip-path="url(#terminal-2120932006-line-26)">
</text><text class="terminal-2120932006-r6" x="0" y="678.8" textLength="12.2" clip-path="url(#terminal-2120932006-line-27)">▊</text><text class="terminal-2120932006-r7" x="12.2" y="678.8" textLength="1708" clip-path="url(#terminal-2120932006-line-27)">▔▔▔▔▔▔▔▔▔▔▔▔▔▔▔▔▔▔▔▔▔▔▔▔▔▔▔▔▔▔▔▔▔▔▔▔▔▔▔▔▔▔▔▔▔▔▔▔▔▔▔▔▔▔▔▔▔▔▔▔▔▔▔▔▔▔▔▔▔▔▔▔▔▔▔▔▔▔▔▔▔▔▔▔▔▔▔▔▔▔▔▔▔▔▔▔▔▔▔▔▔▔▔▔▔▔▔▔▔▔▔▔▔▔▔▔▔▔▔▔▔▔▔▔▔▔▔▔▔▔▔▔▔▔▔▔▔▔▔▔</text><text class="terminal-2120932006-r7" x="1720.2" y="678.8" textLength="12.2" clip-path="url(#terminal-2120932006-line-27)">▎</text><text class="terminal-2120932006-r1" x="1732.4" y="678.8" textLength="12.2" clip-path="url(#terminal-2120932006-line-27)">
</text><text class="terminal-2120932006-r6" x="0" y="703.2" textLength="12.2" clip-path="url(#terminal-2120932006-line-28)">▊</text><text class="terminal-2120932006-r7" x="1720.2" y="703.2" textLength="12.2" clip-path="url(#terminal-2120932006-line-28)">▎</text><text class="terminal-2120932006-r1" x="1732.4" y="703.2" textLength="12.2" clip-path="url(#terminal-2120932006-line-28)">
</text><text class="terminal-2120932006-r6" x="0" y="727.6" textLength="12.2" clip-path="url(#terminal-2120932006-line-29)">▊</text><text class="terminal-2120932006-r7" x="12.2" y="727.6" textLength="1708" clip-path="url(#terminal-2120932006-line-29)">▁▁▁▁▁▁▁▁▁▁▁▁▁▁▁▁▁▁▁▁▁▁▁▁▁▁▁▁▁▁▁▁▁▁▁▁▁▁▁▁▁▁▁▁▁▁▁▁▁▁▁▁▁▁▁▁▁▁▁▁▁▁▁▁▁▁▁▁▁▁▁▁▁▁▁▁▁▁▁▁▁▁▁▁▁▁▁▁▁▁▁▁▁▁▁▁▁▁▁▁▁▁▁▁▁▁▁▁▁▁▁▁▁▁▁▁▁▁▁▁▁▁▁▁▁▁▁▁▁▁▁▁▁▁▁▁▁▁▁▁</text><text class="terminal-2120932006-r7" x="1720.2" y="727.6" textLength="12.2" clip-path="url(#terminal-2120932006-line-29)">▎</text><text class="terminal-2120932006-r1" x="1732.4" y="727.6" textLength="12.2" clip-path="url(#terminal-2120932006-line-29)">
</text><text class="terminal-2120932006-r8" x="0" y="752" textLength="109.8" clip-path="url(#terminal-2120932006-line-30)">&#160;shift+⏎&#160;</text><text class="terminal-2120932006-r2" x="109.8" y="752" textLength="158.6" clip-path="url(#terminal-2120932006-line-30)">Send&#160;message&#160;</text><text class="terminal-2120932006-r9" x="1586" y="752" textLength="12.2" clip-path="url(#terminal-2120932006-line-30)">▏</text><text class="terminal-2120932006-r8" x="1598.2" y="752" textLength="24.4" clip-path="url(#terminal-2120932006-line-30)">^p</text><text class="terminal-2120932006-r2" x="1622.6" y="752" textLength="97.6" clip-path="url(#terminal-2120932006-line-30)">&#160;palette</text>
    </g>
    </g>
</svg>
